<?xml version="1.0" encoding="utf-8"?>
<!-- Generator: Adobe Illustrator 26.2.1, SVG Export Plug-In . SVG Version: 6.00 Build 0)  -->
<svg version="1.1" id="Layer_1" xmlns="http://www.w3.org/2000/svg" xmlns:xlink="http://www.w3.org/1999/xlink" x="0px" y="0px"
	 viewBox="0 0 3500 3500" style="enable-background:new 0 0 3500 3500;" xml:space="preserve">
<style type="text/css">
	.st0{fill:#FFFFFF;}
	.st1{fill:#F8CB46;}
	.st2{fill:#54B226;}
</style>
<rect y="0" class="st0" width="3500" height="3500"/>
<g>
	<path class="st1" d="M689.1,1555.1c47.9,0,90.7,12,128.4,35.9c38,23.6,67.8,57.2,89.4,100.6c20.9,41.8,31.3,90.9,31.3,147.4
		c0,54.8-10.4,103.7-31.3,146.9c-20.9,43.1-50.3,76.9-88.3,101.2c-38.3,24.6-81.5,37-129.4,37c-34.9,0-67.8-7.2-98.6-21.6
		c-30.8-14.4-57.2-34.6-79.1-60.6v69.1H332.7v-735.1h178.7v260.9c21.9-26,48.3-46,79.1-60.1C621.3,1562.3,654.2,1555.1,689.1,1555.1
		z M635.7,1975.7c25.3,0,47.9-5.8,67.8-17.5c19.9-11.6,35.4-27.9,46.7-48.8c11.3-20.5,16.9-44,16.9-70.3c0-25.7-5.6-49-16.9-69.8
		c-11.3-20.9-26.9-37.1-46.7-48.8c-19.9-11.6-42.5-17.5-67.8-17.5c-24,0-45.4,5.8-64.2,17.5c-18.8,11.3-33.6,27.2-44.2,47.8
		c-10.6,20.9-15.9,44.5-15.9,70.9c0,26.4,5.3,50,15.9,70.9c10.6,20.5,25.3,36.6,44.2,48.3C590.3,1969.9,611.7,1975.7,635.7,1975.7z"
		/>
	<path class="st1" d="M962.7,2111v-735.1h178.7V2111H962.7z"/>
	<path class="st1" d="M1192,2111v-543.7h177.7V2111H1192z"/>
	<path class="st1" d="M1755.8,1555.1c38,0,72.2,8.9,102.7,26.7c30.5,17.5,54.4,42.1,71.9,73.9c16.8,32.2,25.2,68.6,25.2,109.4V2111
		H1785v-305.8c0-19.9-3.9-37.5-11.8-52.9c-7.5-15.7-18.3-27.9-32.4-36.5c-13.7-8.6-29.8-12.8-48.3-12.8c-17.5,0-33.6,4.3-48.3,12.8
		c-14.7,8.2-26.2,19.5-34.4,33.9c-8.6,13.7-12.8,29.8-12.8,48.3l-1,313h-177.7v-543.6H1596v62.1c16.8-23.3,39.2-41.4,67.3-54.4
		C1691.4,1561.8,1722.2,1555.1,1755.8,1555.1z"/>
	<path class="st1" d="M2348.2,1805.2l201.6,305.8H2348l-117.9-192.4l-54.4,63.2V2111H1997v-735.1h178.7v406.2l171.8-214.9l201.7,0.1
		L2348.2,1805.2z"/>
	<path class="st1" d="M1191.9,1376h178.3v139.1h-178.3V1376z"/>
	<path class="st2" d="M2577,2111.1v-543.8h178.3v543.8H2577z"/>
	<path class="st2" d="M3131.9,1956.1l35.4,114.5c-16.1,15.4-36.5,27.9-61.1,37.5c-24.3,9.6-48.1,14.4-71.4,14.4
		c-33.6,0-63.5-7.4-89.9-22.1c-26.4-15.1-46.9-35.9-61.6-62.6c-14.7-26-22.1-56-22.1-89.9V1708h-71.4v-140.6h71.4V1376h170.5v191.3
		h112.5V1708h-112.5v207c0,17.5,4.6,31.7,13.9,42.6c9.3,11,21.1,16.4,35.4,16.4c10.3,0,19.9-1.5,28.8-4.6
		C3118.7,1966.4,3126.1,1961.9,3131.9,1956.1z"/>
	<path class="st2" d="M2577,1376h178.3v139.1H2577V1376z"/>
</g>
</svg>
